<?xml version="1.0" encoding="UTF-8"?>
<!DOCTYPE svg PUBLIC "-//W3C//DTD SVG 1.1//EN" "http://www.w3.org/Graphics/SVG/1.1/DTD/svg11.dtd">
<!-- Creator: CorelDRAW 2020 (64-Bit) -->
<svg xmlns="http://www.w3.org/2000/svg" xml:space="preserve" width="600px" height="600px" version="1.1" shape-rendering="geometricPrecision" text-rendering="geometricPrecision" image-rendering="optimizeQuality" fill-rule="evenodd" clip-rule="evenodd"
viewBox="0 0 176.45 176.45"
 xmlns:xlink="http://www.w3.org/1999/xlink"
 xmlns:xodm="http://www.corel.com/coreldraw/odm/2003">
 <g id="Layer_x0020_1">
  <metadata id="CorelCorpID_0Corel-Layer"/>
  <g id="_1813767668992">
   <path fill="#66CCFF" fill-rule="nonzero" d="M0.87 26.63l0 123.18c0,14.22 11.52,25.77 25.76,25.77l123.18 0c14.22,0 25.77,-11.55 25.77,-25.77l0 -123.18c0,-14.24 -11.55,-25.76 -25.77,-25.76l-123.18 0c-14.24,0 -25.76,11.52 -25.76,25.76z"/>
   <path fill="none" fill-rule="nonzero" stroke="#3399FF" stroke-width="1.74" stroke-linecap="round" stroke-linejoin="round" stroke-miterlimit="2.61313" d="M0.87 26.63l0 123.18c0,14.22 11.52,25.77 25.76,25.77l123.18 0c14.22,0 25.77,-11.55 25.77,-25.77l0 -123.18c0,-14.24 -11.55,-25.76 -25.77,-25.76l-123.18 0c-14.24,0 -25.76,11.52 -25.76,25.76z"/>
   <line fill="none" fill-rule="nonzero" stroke="black" stroke-width="6.89" stroke-linecap="round" stroke-linejoin="round" stroke-miterlimit="2.61313" x1="18.34" y1="105.69" x2="18.34" y2= "131.9" />
   <line fill="none" fill-rule="nonzero" stroke="black" stroke-width="6.89" stroke-linecap="round" stroke-linejoin="round" stroke-miterlimit="2.61313" x1="44.55" y1="105.69" x2="44.55" y2= "131.9" />
   <line fill="none" fill-rule="nonzero" stroke="black" stroke-width="6.89" stroke-linecap="round" stroke-linejoin="round" stroke-miterlimit="2.61313" x1="44.55" y1="131.9" x2="18.34" y2= "131.9" />
   <line fill="none" fill-rule="nonzero" stroke="black" stroke-width="6.89" stroke-linecap="round" stroke-linejoin="round" stroke-miterlimit="2.61313" x1="18.34" y1="105.69" x2="44.55" y2= "105.69" />
   <line fill="none" fill-rule="nonzero" stroke="black" stroke-width="6.89" stroke-linecap="round" stroke-linejoin="round" stroke-miterlimit="2.61313" x1="44.55" y1="105.69" x2="44.55" y2= "79.49" />
   <line fill="none" fill-rule="nonzero" stroke="black" stroke-width="6.89" stroke-linecap="round" stroke-linejoin="round" stroke-miterlimit="2.61313" x1="62.02" y1="105.69" x2="62.02" y2= "131.9" />
   <line fill="none" fill-rule="nonzero" stroke="black" stroke-width="6.89" stroke-linecap="round" stroke-linejoin="round" stroke-miterlimit="2.61313" x1="79.49" y1="27.07" x2="79.49" y2= "131.9" />
   <path fill="black" fill-rule="nonzero" d="M25.2 131.9c0,3.78 -3.06,6.86 -6.86,6.86 -3.8,0 -6.89,-3.08 -6.89,-6.86 0,-3.8 3.09,-6.89 6.89,-6.89 3.8,0 6.86,3.09 6.86,6.89z"/>
   <path fill="white" fill-rule="nonzero" d="M20.9 131.9c0,1.41 -1.16,2.56 -2.56,2.56 -1.43,0 -2.59,-1.15 -2.59,-2.56 0,-1.43 1.16,-2.59 2.59,-2.59 1.4,0 2.56,1.16 2.56,2.59z"/>
   <path fill="black" fill-rule="nonzero" d="M25.2 105.69c0,3.78 -3.06,6.87 -6.86,6.87 -3.8,0 -6.89,-3.09 -6.89,-6.87 0,-3.8 3.09,-6.89 6.89,-6.89 3.8,0 6.86,3.09 6.86,6.89z"/>
   <path fill="white" fill-rule="nonzero" d="M20.9 105.69c0,1.41 -1.16,2.57 -2.56,2.57 -1.43,0 -2.59,-1.16 -2.59,-2.57 0,-1.43 1.16,-2.59 2.59,-2.59 1.4,0 2.56,1.16 2.56,2.59z"/>
   <path fill="black" fill-rule="nonzero" d="M51.41 131.9c0,3.78 -3.06,6.86 -6.86,6.86 -3.81,0 -6.89,-3.08 -6.89,-6.86 0,-3.8 3.08,-6.89 6.89,-6.89 3.8,0 6.86,3.09 6.86,6.89z"/>
   <path fill="white" fill-rule="nonzero" d="M47.11 131.9c0,1.41 -1.16,2.56 -2.56,2.56 -1.44,0 -2.59,-1.15 -2.59,-2.56 0,-1.43 1.15,-2.59 2.59,-2.59 1.4,0 2.56,1.16 2.56,2.59z"/>
   <path fill="black" fill-rule="nonzero" d="M51.41 79.49c0,3.77 -3.06,6.86 -6.86,6.86 -3.81,0 -6.89,-3.09 -6.89,-6.86 0,-3.81 3.08,-6.89 6.89,-6.89 3.8,0 6.86,3.08 6.86,6.89z"/>
   <path fill="white" fill-rule="nonzero" d="M47.11 79.49c0,1.4 -1.16,2.56 -2.56,2.56 -1.44,0 -2.59,-1.16 -2.59,-2.56 0,-1.44 1.15,-2.59 2.59,-2.59 1.4,0 2.56,1.15 2.56,2.59z"/>
   <path fill="black" fill-rule="nonzero" d="M68.88 131.9c0,3.78 -3.06,6.86 -6.86,6.86 -3.81,0 -6.89,-3.08 -6.89,-6.86 0,-3.8 3.08,-6.89 6.89,-6.89 3.8,0 6.86,3.09 6.86,6.89z"/>
   <path fill="white" fill-rule="nonzero" d="M64.58 131.9c0,1.41 -1.16,2.56 -2.56,2.56 -1.44,0 -2.59,-1.15 -2.59,-2.56 0,-1.43 1.15,-2.59 2.59,-2.59 1.4,0 2.56,1.16 2.56,2.59z"/>
   <path fill="black" fill-rule="nonzero" d="M68.88 105.69c0,3.78 -3.06,6.87 -6.86,6.87 -3.81,0 -6.89,-3.09 -6.89,-6.87 0,-3.8 3.08,-6.89 6.89,-6.89 3.8,0 6.86,3.09 6.86,6.89z"/>
   <path fill="white" fill-rule="nonzero" d="M64.58 105.69c0,1.41 -1.16,2.57 -2.56,2.57 -1.44,0 -2.59,-1.16 -2.59,-2.57 0,-1.43 1.15,-2.59 2.59,-2.59 1.4,0 2.56,1.16 2.56,2.59z"/>
   <path fill="black" fill-rule="nonzero" d="M86.35 131.9c0,3.78 -3.09,6.86 -6.86,6.86 -3.81,0 -6.89,-3.08 -6.89,-6.86 0,-3.8 3.08,-6.89 6.89,-6.89 3.77,0 6.86,3.09 6.86,6.89z"/>
   <path fill="white" fill-rule="nonzero" d="M82.05 131.9c0,1.41 -1.16,2.56 -2.56,2.56 -1.44,0 -2.59,-1.15 -2.59,-2.56 0,-1.43 1.15,-2.59 2.59,-2.59 1.4,0 2.56,1.16 2.56,2.59z"/>
   <path fill="black" fill-rule="nonzero" d="M86.35 27.07c0,3.81 -3.09,6.87 -6.86,6.87 -3.81,0 -6.89,-3.06 -6.89,-6.87 0,-3.8 3.08,-6.88 6.89,-6.88 3.77,0 6.86,3.08 6.86,6.88z"/>
   <path fill="white" fill-rule="nonzero" d="M82.05 27.07c0,1.41 -1.16,2.57 -2.56,2.57 -1.44,0 -2.59,-1.16 -2.59,-2.57 0,-1.43 1.15,-2.59 2.59,-2.59 1.4,0 2.56,1.16 2.56,2.59z"/>
   <line fill="none" fill-rule="nonzero" stroke="black" stroke-width="6.89" stroke-linecap="round" stroke-linejoin="round" stroke-miterlimit="2.61313" x1="96.96" y1="27.07" x2="96.96" y2= "131.9" />
   <path fill="black" fill-rule="nonzero" d="M103.82 27.07c0,3.81 -3.09,6.87 -6.86,6.87 -3.8,0 -6.89,-3.06 -6.89,-6.87 0,-3.8 3.09,-6.88 6.89,-6.88 3.77,0 6.86,3.08 6.86,6.88z"/>
   <path fill="white" fill-rule="nonzero" d="M99.52 27.07c0,1.41 -1.16,2.57 -2.56,2.57 -1.43,0 -2.59,-1.16 -2.59,-2.57 0,-1.43 1.16,-2.59 2.59,-2.59 1.4,0 2.56,1.16 2.56,2.59z"/>
   <line fill="none" fill-rule="nonzero" stroke="black" stroke-width="6.89" stroke-linecap="round" stroke-linejoin="round" stroke-miterlimit="2.61313" x1="96.96" y1="131.9" x2="158.11" y2= "131.9" />
   <path fill="black" fill-rule="nonzero" d="M164.97 131.9c0,3.78 -3.09,6.86 -6.86,6.86 -3.81,0 -6.89,-3.08 -6.89,-6.86 0,-3.8 3.08,-6.89 6.89,-6.89 3.77,0 6.86,3.09 6.86,6.89z"/>
   <path fill="white" fill-rule="nonzero" d="M160.67 131.9c0,1.41 -1.16,2.56 -2.56,2.56 -1.44,0 -2.59,-1.15 -2.59,-2.56 0,-1.43 1.15,-2.59 2.59,-2.59 1.4,0 2.56,1.16 2.56,2.59z"/>
   <path fill="none" fill-rule="nonzero" stroke="black" stroke-width="6.89" stroke-linecap="round" stroke-linejoin="round" stroke-miterlimit="2.61313" d="M158.11 27.07c-61.15,0 -61.15,87.36 0,87.36"/>
   <path fill="black" fill-rule="nonzero" d="M164.97 114.43c0,3.77 -3.09,6.86 -6.86,6.86 -3.81,0 -6.89,-3.09 -6.89,-6.86 0,-3.8 3.08,-6.89 6.89,-6.89 3.77,0 6.86,3.09 6.86,6.89z"/>
   <path fill="white" fill-rule="nonzero" d="M160.67 114.43c0,1.4 -1.16,2.56 -2.56,2.56 -1.44,0 -2.59,-1.16 -2.59,-2.56 0,-1.43 1.15,-2.59 2.59,-2.59 1.4,0 2.56,1.16 2.56,2.59z"/>
   <path fill="black" fill-rule="nonzero" d="M164.97 27.07c0,3.81 -3.09,6.87 -6.86,6.87 -3.81,0 -6.89,-3.06 -6.89,-6.87 0,-3.8 3.08,-6.88 6.89,-6.88 3.77,0 6.86,3.08 6.86,6.88z"/>
   <path fill="white" fill-rule="nonzero" d="M160.67 27.07c0,1.41 -1.16,2.57 -2.56,2.57 -1.44,0 -2.59,-1.16 -2.59,-2.57 0,-1.43 1.15,-2.59 2.59,-2.59 1.4,0 2.56,1.16 2.56,2.59z"/>
   <path fill="#CCCCCC" fill-rule="nonzero" d="M158.11 26.19c-0.5,0 -0.88,0.39 -0.88,0.88l0 17.48c0,0.46 0.38,0.85 0.88,0.85 0.47,0 0.85,-0.39 0.85,-0.85l0 -17.48c0,-0.49 -0.38,-0.88 -0.85,-0.88zm0 69.89c-0.5,0 -0.88,0.38 -0.88,0.88l0 17.47c0,0.47 0.38,0.85 0.88,0.85 0.47,0 0.85,-0.38 0.85,-0.85l0 -17.47c0,-0.5 -0.38,-0.88 -0.85,-0.88z"/>
   <path fill="none" fill-rule="nonzero" stroke="#8E8E8E" stroke-width="0.44" stroke-linecap="round" stroke-linejoin="round" stroke-miterlimit="2.61313" d="M158.11 26.19c-0.5,0 -0.88,0.39 -0.88,0.88l0 17.48c0,0.46 0.38,0.85 0.88,0.85 0.47,0 0.85,-0.39 0.85,-0.85l0 -17.48c0,-0.49 -0.38,-0.88 -0.85,-0.88zm0 69.89c-0.5,0 -0.88,0.38 -0.88,0.88l0 17.47c0,0.47 0.38,0.85 0.88,0.85 0.47,0 0.85,-0.38 0.85,-0.85l0 -17.47c0,-0.5 -0.38,-0.88 -0.85,-0.88z"/>
   <polygon fill="#FFE303" fill-rule="nonzero" points="146.97,96.96 146.97,44.55 169.24,44.55 169.24,96.96 "/>
   <polygon fill="none" fill-rule="nonzero" stroke="#B29E02" stroke-width="0.44" stroke-linecap="round" stroke-linejoin="round" stroke-miterlimit="2.61313" points="146.97,96.96 146.97,44.55 169.24,44.55 169.24,96.96 "/>
   <path fill="black" fill-rule="nonzero" d="M103.82 131.9c0,3.78 -3.09,6.86 -6.86,6.86 -3.8,0 -6.89,-3.08 -6.89,-6.86 0,-3.8 3.09,-6.89 6.89,-6.89 3.77,0 6.86,3.09 6.86,6.89z"/>
   <path fill="white" fill-rule="nonzero" d="M99.52 131.9c0,1.41 -1.16,2.56 -2.56,2.56 -1.43,0 -2.59,-1.15 -2.59,-2.56 0,-1.43 1.16,-2.59 2.59,-2.59 1.4,0 2.56,1.16 2.56,2.59z"/>
   <line fill="none" fill-rule="nonzero" stroke="black" stroke-width="6.89" stroke-linecap="round" stroke-linejoin="round" stroke-miterlimit="2.61313" x1="18.34" y1="27.07" x2="79.49" y2= "79.49" />
   <path fill="black" fill-rule="nonzero" d="M25.2 27.07c0,3.81 -3.06,6.87 -6.86,6.87 -3.8,0 -6.89,-3.06 -6.89,-6.87 0,-3.8 3.09,-6.88 6.89,-6.88 3.8,0 6.86,3.08 6.86,6.88z"/>
   <path fill="white" fill-rule="nonzero" d="M20.9 27.07c0,1.41 -1.16,2.57 -2.56,2.57 -1.43,0 -2.59,-1.16 -2.59,-2.57 0,-1.43 1.16,-2.59 2.59,-2.59 1.4,0 2.56,1.16 2.56,2.59z"/>
   <path fill="#CCCCCC" fill-rule="nonzero" d="M18.34 26.19c-0.47,0 -0.88,0.39 -0.88,0.86l-0.44 21.85c0,0.47 0.38,0.85 0.85,0.88 0,0 0.03,0 0.03,0 0.47,0 0.85,-0.38 0.88,-0.85l0.41 -21.86c0.03,-0.46 -0.35,-0.88 -0.85,-0.88 0,0 0,0 0,0l0 0zm0 56.77c-0.5,0 -0.88,0.41 -0.88,0.88l0 21.85c0,0.47 0.38,0.86 0.88,0.86 0.47,0 0.85,-0.39 0.85,-0.86l0 -21.85c0,-0.47 -0.38,-0.88 -0.85,-0.88z"/>
   <path fill="none" fill-rule="nonzero" stroke="#8E8E8E" stroke-width="0.44" stroke-linecap="round" stroke-linejoin="round" stroke-miterlimit="2.61313" d="M18.34 26.19c-0.47,0 -0.88,0.39 -0.88,0.86l-0.44 21.85c0,0.47 0.38,0.85 0.85,0.88 0,0 0.03,0 0.03,0 0.47,0 0.85,-0.38 0.88,-0.85l0.41 -21.86c0.03,-0.46 -0.35,-0.88 -0.85,-0.88 0,0 0,0 0,0l0 0zm0 56.77c-0.5,0 -0.88,0.41 -0.88,0.88l0 21.85c0,0.47 0.38,0.86 0.88,0.86 0.47,0 0.85,-0.39 0.85,-0.86l0 -21.85c0,-0.47 -0.38,-0.88 -0.85,-0.88z"/>
   <polygon fill="#404040" fill-rule="nonzero" points="11.56,83.84 11.56,48.9 25.09,48.9 25.09,83.84 "/>
   <polygon fill="#DDDDDD" fill-rule="nonzero" points="11.56,51.96 11.56,48.9 25.09,48.9 25.09,51.96 "/>
   <polygon fill="none" fill-rule="nonzero" stroke="#2C2C2C" stroke-width="0.44" stroke-linecap="round" stroke-linejoin="round" stroke-miterlimit="2.61313" points="11.56,83.84 11.56,48.9 25.09,48.9 25.09,83.84 "/>
   <path fill="#CCCCCC" fill-rule="nonzero" d="M79.49 8.5c-2.57,0 -4.55,1.27 -5.84,3.23 -1.22,1.81 -1.82,4.21 -1.82,6.61 0,2.4 0.6,4.79 1.82,6.61 1.29,1.93 3.27,3.2 5.84,3.2 0.6,0 1.07,-0.47 1.07,-1.08 0,-0.6 -0.47,-1.1 -1.07,-1.1 -1.82,0 -3.12,-0.91 -4.03,-2.23 -0.96,-1.46 -1.43,-3.44 -1.43,-5.4 0,-1.99 0.47,-3.94 1.43,-5.4 0.91,-1.35 2.21,-2.26 4.03,-2.26 0.6,0 1.07,-0.47 1.07,-1.08 0,-0.6 -0.47,-1.1 -1.07,-1.1l0 0z"/>
   <path fill="none" fill-rule="nonzero" stroke="#8E8E8E" stroke-width="0.44" stroke-linecap="round" stroke-linejoin="round" stroke-miterlimit="2.61313" d="M79.49 8.5c-2.57,0 -4.55,1.27 -5.84,3.23 -1.22,1.81 -1.82,4.21 -1.82,6.61 0,2.4 0.6,4.79 1.82,6.61 1.29,1.93 3.27,3.2 5.84,3.2 0.6,0 1.07,-0.47 1.07,-1.08 0,-0.6 -0.47,-1.1 -1.07,-1.1 -1.82,0 -3.12,-0.91 -4.03,-2.23 -0.96,-1.46 -1.43,-3.44 -1.43,-5.4 0,-1.99 0.47,-3.94 1.43,-5.4 0.91,-1.35 2.21,-2.26 4.03,-2.26 0.6,0 1.07,-0.47 1.07,-1.08 0,-0.6 -0.47,-1.1 -1.07,-1.1l0 0z"/>
   <path fill="#CCCCCC" fill-rule="nonzero" d="M96.96 10.68c1.82,0 3.11,0.91 3.99,2.26 0.97,1.46 1.46,3.42 1.46,5.4 0,1.96 -0.49,3.94 -1.46,5.4 -0.88,1.32 -2.17,2.23 -3.99,2.23 -0.61,0 -1.1,0.5 -1.1,1.1 0,0.61 0.49,1.08 1.1,1.08 2.53,0 4.52,-1.27 5.81,-3.2 1.22,-1.82 1.82,-4.21 1.82,-6.61 0,-2.4 -0.6,-4.8 -1.82,-6.61 -1.29,-1.96 -3.28,-3.23 -5.81,-3.23 -0.61,0 -1.1,0.5 -1.1,1.1 0,0.61 0.49,1.08 1.1,1.08l0 0z"/>
   <path fill="none" fill-rule="nonzero" stroke="#8E8E8E" stroke-width="0.44" stroke-linecap="round" stroke-linejoin="round" stroke-miterlimit="2.61313" d="M96.96 10.68c1.82,0 3.11,0.91 3.99,2.26 0.97,1.46 1.46,3.42 1.46,5.4 0,1.96 -0.49,3.94 -1.46,5.4 -0.88,1.32 -2.17,2.23 -3.99,2.23 -0.61,0 -1.1,0.5 -1.1,1.1 0,0.61 0.49,1.08 1.1,1.08 2.53,0 4.52,-1.27 5.81,-3.2 1.22,-1.82 1.82,-4.21 1.82,-6.61 0,-2.4 -0.6,-4.8 -1.82,-6.61 -1.29,-1.96 -3.28,-3.23 -5.81,-3.23 -0.61,0 -1.1,0.5 -1.1,1.1 0,0.61 0.49,1.08 1.1,1.08l0 0z"/>
   <path fill="#CCCCCC" fill-rule="nonzero" d="M79.49 8.72c-0.5,0 -0.88,0.39 -0.88,0.88 0,0.47 0.38,0.86 0.88,0.86l4.35 0c0.5,0 0.88,-0.39 0.88,-0.86 0,-0.49 -0.38,-0.88 -0.88,-0.88l-4.35 0zm13.09 0c-0.47,0 -0.88,0.39 -0.88,0.88 0,0.47 0.41,0.86 0.88,0.86l4.38 0c0.47,0 0.85,-0.39 0.85,-0.86 0,-0.49 -0.38,-0.88 -0.85,-0.88l-4.38 0z"/>
   <path fill="none" fill-rule="nonzero" stroke="#8E8E8E" stroke-width="0.44" stroke-linecap="round" stroke-linejoin="round" stroke-miterlimit="2.61313" d="M79.49 8.72c-0.5,0 -0.88,0.39 -0.88,0.88 0,0.47 0.38,0.86 0.88,0.86l4.35 0c0.5,0 0.88,-0.39 0.88,-0.86 0,-0.49 -0.38,-0.88 -0.88,-0.88l-4.35 0zm13.09 0c-0.47,0 -0.88,0.39 -0.88,0.88 0,0.47 0.41,0.86 0.88,0.86l4.38 0c0.47,0 0.85,-0.39 0.85,-0.86 0,-0.49 -0.38,-0.88 -0.85,-0.88l-4.38 0z"/>
   <path fill="khaki" fill-rule="nonzero" d="M99.14 9.6c0,3.01 -4.88,5.46 -10.92,5.46 -6.03,0 -10.94,-2.45 -10.94,-5.46 0,-3.03 4.91,-5.45 10.94,-5.45 6.04,0 10.92,2.42 10.92,5.45z"/>
   <path fill="none" fill-rule="nonzero" stroke="#A8A162" stroke-width="0.44" stroke-linecap="round" stroke-linejoin="round" stroke-miterlimit="2.61313" d="M99.14 9.6c0,3.01 -4.88,5.46 -10.92,5.46 -6.03,0 -10.94,-2.45 -10.94,-5.46 0,-3.03 4.91,-5.45 10.94,-5.45 6.04,0 10.92,2.42 10.92,5.45z"/>
   <path fill="#CCCCCC" fill-rule="nonzero" d="M17.24 131.9c0,6.59 0,11.57 0.55,15.29 0.58,3.97 1.84,6.7 4.24,8.49 2.37,1.77 5.84,2.68 10.97,3.09 4.93,0.41 11.52,0.41 20.28,0.41 0.61,0 1.08,-0.47 1.08,-1.07 0,-0.61 -0.47,-1.11 -1.08,-1.11 -8.71,0 -15.24,0 -20.12,-0.38 -4.71,-0.41 -7.79,-1.16 -9.81,-2.67 -1.95,-1.46 -2.89,-3.67 -3.39,-7.06 -0.55,-3.64 -0.55,-8.49 -0.55,-14.99 0,-0.61 -0.46,-1.1 -1.07,-1.1 -0.61,0 -1.1,0.49 -1.1,1.1l0 0z"/>
   <path fill="none" fill-rule="nonzero" stroke="#8E8E8E" stroke-width="0.44" stroke-linecap="round" stroke-linejoin="round" stroke-miterlimit="2.61313" d="M17.24 131.9c0,6.59 0,11.57 0.55,15.29 0.58,3.97 1.84,6.7 4.24,8.49 2.37,1.77 5.84,2.68 10.97,3.09 4.93,0.41 11.52,0.41 20.28,0.41 0.61,0 1.08,-0.47 1.08,-1.07 0,-0.61 -0.47,-1.11 -1.08,-1.11 -8.71,0 -15.24,0 -20.12,-0.38 -4.71,-0.41 -7.79,-1.16 -9.81,-2.67 -1.95,-1.46 -2.89,-3.67 -3.39,-7.06 -0.55,-3.64 -0.55,-8.49 -0.55,-14.99 0,-0.61 -0.46,-1.1 -1.07,-1.1 -0.61,0 -1.1,0.49 -1.1,1.1l0 0z"/>
   <path fill="#CCCCCC" fill-rule="nonzero" d="M157 131.9c0,6.5 0,11.35 -0.52,14.99 -0.52,3.39 -1.46,5.6 -3.42,7.06 -2.01,1.51 -5.09,2.26 -9.78,2.67 -4.9,0.38 -11.41,0.38 -20.11,0.38 -0.61,0 -1.11,0.5 -1.11,1.11 0,0.6 0.5,1.07 1.11,1.07 8.76,0 15.34,0 20.28,-0.41 5.12,-0.41 8.59,-1.32 10.94,-3.09 2.42,-1.79 3.66,-4.52 4.24,-8.49 0.55,-3.72 0.55,-8.7 0.55,-15.29 0,-0.61 -0.47,-1.1 -1.07,-1.1 -0.61,0 -1.11,0.49 -1.11,1.1z"/>
   <path fill="none" fill-rule="nonzero" stroke="#8E8E8E" stroke-width="0.44" stroke-linecap="round" stroke-linejoin="round" stroke-miterlimit="2.61313" d="M157 131.9c0,6.5 0,11.35 -0.52,14.99 -0.52,3.39 -1.46,5.6 -3.42,7.06 -2.01,1.51 -5.09,2.26 -9.78,2.67 -4.9,0.38 -11.41,0.38 -20.11,0.38 -0.61,0 -1.11,0.5 -1.11,1.11 0,0.6 0.5,1.07 1.11,1.07 8.76,0 15.34,0 20.28,-0.41 5.12,-0.41 8.59,-1.32 10.94,-3.09 2.42,-1.79 3.66,-4.52 4.24,-8.49 0.55,-3.72 0.55,-8.7 0.55,-15.29 0,-0.61 -0.47,-1.1 -1.07,-1.1 -0.61,0 -1.11,0.49 -1.11,1.1z"/>
   <path fill="#CCCCCC" fill-rule="nonzero" d="M48.9 157.23c-0.47,0 -0.88,0.38 -0.88,0.88 0,0.47 0.41,0.85 0.88,0.85l13.12 0c0.47,0 0.85,-0.38 0.85,-0.85 0,-0.5 -0.38,-0.88 -0.85,-0.88l-13.12 0zm65.53 0c-0.5,0 -0.88,0.38 -0.88,0.88 0,0.47 0.38,0.85 0.88,0.85l13.09 0c0.5,0 0.88,-0.38 0.88,-0.85 0,-0.5 -0.38,-0.88 -0.88,-0.88l-13.09 0z"/>
   <path fill="none" fill-rule="nonzero" stroke="#8E8E8E" stroke-width="0.44" stroke-linecap="round" stroke-linejoin="round" stroke-miterlimit="2.61313" d="M48.9 157.23c-0.47,0 -0.88,0.38 -0.88,0.88 0,0.47 0.41,0.85 0.88,0.85l13.12 0c0.47,0 0.85,-0.38 0.85,-0.85 0,-0.5 -0.38,-0.88 -0.85,-0.88l-13.12 0zm65.53 0c-0.5,0 -0.88,0.38 -0.88,0.88 0,0.47 0.38,0.85 0.88,0.85l13.09 0c0.5,0 0.88,-0.38 0.88,-0.85 0,-0.5 -0.38,-0.88 -0.88,-0.88l-13.09 0z"/>
   <path fill="#6B6DCE" fill-rule="nonzero" d="M51.08 144.99c-1.19,0 -2.18,0.99 -2.18,2.18l0 21.85c0,1.21 0.99,2.18 2.18,2.18l4.82 0c0.55,-0.97 1.62,-1.63 2.84,-1.63 1.21,0 2.26,0.66 2.84,1.63l63.76 0c1.21,0 2.18,-0.97 2.18,-2.18l0 -21.85c0,-1.19 -0.97,-2.18 -2.18,-2.18l-63.76 0c-0.58,0.99 -1.63,1.65 -2.84,1.65 -1.22,0 -2.29,-0.66 -2.84,-1.65l-4.82 0z"/>
   <line fill="none" fill-rule="nonzero" stroke="#5A5CAF" stroke-width="0.44" stroke-linecap="round" stroke-linejoin="round" stroke-miterlimit="2.61313" x1="55.46" y1="144.99" x2="55.46" y2= "171.2" />
   <line fill="none" fill-rule="nonzero" stroke="#5A5CAF" stroke-width="0.44" stroke-linecap="round" stroke-linejoin="round" stroke-miterlimit="2.61313" x1="62.02" y1="144.99" x2="62.02" y2= "171.2" />
   <path fill="#8CACEA" fill-rule="nonzero" d="M111.81 144.99l0 26.21 13.53 0c1.21,0 2.18,-0.97 2.18,-2.18l0 -21.85c0,-1.19 -0.97,-2.18 -2.18,-2.18l-13.53 0 0 0z"/>
   <line fill="none" fill-rule="nonzero" stroke="white" stroke-width="0.88" stroke-linecap="round" stroke-linejoin="round" stroke-miterlimit="2.61313" x1="119.67" y1="154.17" x2="119.67" y2= "162.02" />
   <path fill="none" fill-rule="nonzero" stroke="#4A4C90" stroke-width="0.44" stroke-linecap="round" stroke-linejoin="round" stroke-miterlimit="2.61313" d="M51.08 144.99c-1.19,0 -2.18,0.99 -2.18,2.18l0 21.85c0,1.21 0.99,2.18 2.18,2.18l4.82 0c0.55,-0.97 1.62,-1.63 2.84,-1.63 1.21,0 2.26,0.66 2.84,1.63l63.76 0c1.21,0 2.18,-0.97 2.18,-2.18l0 -21.85c0,-1.19 -0.97,-2.18 -2.18,-2.18l-63.76 0c-0.58,0.99 -1.63,1.65 -2.84,1.65 -1.22,0 -2.29,-0.66 -2.84,-1.65l-4.82 0z"/>
   <path fill="black" fill-rule="nonzero" d="M67.25 88.44c0,2.76 -2.26,5.02 -5.01,5.02 -2.79,0 -5.05,-2.26 -5.05,-5.02 0,-2.78 2.26,-5.04 5.05,-5.04 2.75,0 5.01,2.26 5.01,5.04z"/>
  </g>
 </g>
</svg>
