<?xml version="1.0" encoding="UTF-8"?>
<!DOCTYPE svg PUBLIC "-//W3C//DTD SVG 1.0//EN" "http://www.w3.org/TR/2001/REC-SVG-20010904/DTD/svg10.dtd">
<!-- Creator: CorelDRAW 2020 (64-Bit) -->
<svg xmlns="http://www.w3.org/2000/svg" xml:space="preserve" width="23.9607mm" height="32.004mm" version="1.0" shape-rendering="geometricPrecision" text-rendering="geometricPrecision" image-rendering="optimizeQuality" fill-rule="evenodd" clip-rule="evenodd"
viewBox="0 0 306.49 408.65"
 xmlns:xlink="http://www.w3.org/1999/xlink"
 xmlns:xodm="http://www.corel.com/coreldraw/odm/2003">
 <g id="Layer_x0020_1">
  <metadata id="CorelCorpID_0Corel-Layer"/>
  <path id="base" fill="#434242" d="M-0 87.84l0.41 -7.52c0.75,-3.22 1.91,-6.42 3.41,-9.57l0.03 -0.08 0.26 -0.52c0.85,-1.76 1.81,-3.53 2.92,-5.27 22.24,-35.67 88.7,-65.06 144.94,-64.87l1.26 0.02 1.26 -0.02c56.25,-0.2 122.7,29.2 144.94,64.87 1.11,1.75 2.09,3.51 2.92,5.27l0.26 0.52 0.03 0.08c1.5,3.15 2.66,6.33 3.41,9.57l0.41 7.52 0 76.16 0 80.65 0 76.16 -0.41 7.52c-0.75,3.23 -1.91,6.42 -3.41,9.57l-0.03 0.08 -0.26 0.52c-0.83,1.76 -1.81,3.53 -2.92,5.27 -22.24,35.67 -88.7,65.06 -144.94,64.87l-1.26 -0.02 -1.26 0.02c-56.25,0.2 -122.7,-29.2 -144.94,-64.87 -1.11,-1.75 -2.08,-3.51 -2.92,-5.27l-0.26 -0.52 -0.03 -0.08c-1.5,-3.15 -2.66,-6.35 -3.41,-9.57l-0.41 -7.52 0 -76.16 0 -80.65 0 -76.16z"/>
  <g id="labels">
   <path fill="#DA8A67" fill-rule="nonzero" d="M64.99 74.66l1.31 0c0.62,0 1.13,-0.15 1.49,-0.46 0.36,-0.31 0.54,-0.73 0.54,-1.27 0,-0.52 -0.18,-0.93 -0.54,-1.22 -0.34,-0.28 -0.85,-0.42 -1.49,-0.42l-1.31 0 0 3.38zm0 -5.57l1.05 0c0.62,0 1.1,-0.15 1.44,-0.41 0.36,-0.28 0.52,-0.65 0.52,-1.14 0,-0.49 -0.16,-0.85 -0.49,-1.08 -0.33,-0.25 -0.85,-0.36 -1.55,-0.36l-0.96 0 0 2.99 -0 0zm-2.86 7.95l0 -13.16 4.07 0c1.54,0 2.68,0.28 3.46,0.83 0.78,0.56 1.19,1.39 1.19,2.5 0,0.67 -0.18,1.24 -0.54,1.71 -0.36,0.47 -0.9,0.83 -1.62,1.09 0.8,0.18 1.42,0.56 1.88,1.11 0.46,0.57 0.69,1.27 0.69,2.07 0,1.27 -0.47,2.22 -1.4,2.87 -0.95,0.64 -2.32,0.96 -4.17,0.96l-3.56 0 0 0zm14.15 0l0 -10.76 -2.3 0 0.42 -2.4 4.8 0 0 13.16 -2.92 0z"/>
   <path fill="#DA8A67" fill-rule="nonzero" d="M64.99 127.35l1.31 0c0.62,0 1.13,-0.15 1.49,-0.46 0.36,-0.31 0.54,-0.74 0.54,-1.27 0,-0.52 -0.18,-0.93 -0.54,-1.21 -0.34,-0.29 -0.85,-0.44 -1.49,-0.44l-1.31 0 0 3.38zm0 -5.57l1.05 0c0.62,0 1.1,-0.15 1.44,-0.41 0.36,-0.28 0.52,-0.65 0.52,-1.14 0,-0.49 -0.16,-0.85 -0.49,-1.08 -0.33,-0.23 -0.85,-0.34 -1.55,-0.34l-0.96 0 0 2.97 -0 0zm-2.86 7.95l0 -13.16 4.07 0c1.54,0 2.68,0.28 3.46,0.83 0.78,0.57 1.19,1.4 1.19,2.5 0,0.67 -0.18,1.24 -0.54,1.71 -0.36,0.47 -0.9,0.83 -1.62,1.09 0.8,0.18 1.42,0.55 1.88,1.13 0.46,0.55 0.69,1.26 0.69,2.07 0,1.26 -0.47,2.22 -1.4,2.86 -0.95,0.64 -2.32,0.96 -4.17,0.96l-3.56 0 0 0zm10.28 0l0 -1.06 4.75 -5.7 0.05 -0.05c0.88,-1.04 1.32,-1.86 1.32,-2.43 0,-0.46 -0.16,-0.85 -0.47,-1.14 -0.31,-0.31 -0.72,-0.46 -1.21,-0.46 -0.44,0 -0.83,0.15 -1.16,0.44 -0.33,0.29 -0.54,0.7 -0.65,1.19l-2.52 -1.24c0.38,-1 0.96,-1.76 1.75,-2.32 0.78,-0.55 1.7,-0.82 2.76,-0.82 1.26,0 2.32,0.39 3.19,1.19 0.87,0.8 1.29,1.8 1.29,2.99 0,0.73 -0.2,1.49 -0.59,2.27 -0.38,0.78 -0.98,1.63 -1.8,2.53l-1.73 1.91 4.74 0 -0.46 2.69 -9.26 0 0 0z"/>
   <path fill="#DA8A67" fill-rule="nonzero" d="M61.03 183.75l2.74 -13.58 0.23 0 4.97 8.57 4.69 -8.57 0.23 0 2.76 13.58 -2.99 0 -1.11 -6.01 -3.55 6.5 -0.21 0 -3.79 -6.59 -1.16 6.1 -2.81 0zm20.29 0l0 -10.76 -2.32 0 0.44 -2.4 4.79 0 0 13.16 -2.91 0 0 0z"/>
   <path fill="#DA8A67" fill-rule="nonzero" d="M59.73 236.44l2.73 -13.58 0.23 0 4.97 8.57 4.69 -8.57 0.25 0 2.75 13.58 -2.99 0 -1.11 -6.01 -3.53 6.5 -0.21 0 -3.81 -6.58 -1.14 6.09 -2.81 0 0 0zm16.41 0l0 -1.06 4.76 -5.7 0.05 -0.05c0.88,-1.04 1.32,-1.86 1.32,-2.43 0,-0.46 -0.16,-0.85 -0.47,-1.14 -0.31,-0.31 -0.72,-0.46 -1.21,-0.46 -0.46,0 -0.83,0.15 -1.16,0.44 -0.33,0.29 -0.56,0.7 -0.65,1.21l-2.52 -1.26c0.38,-1 0.96,-1.76 1.75,-2.32 0.78,-0.54 1.7,-0.82 2.76,-0.82 1.26,0 2.32,0.39 3.19,1.19 0.87,0.8 1.29,1.8 1.29,2.99 0,0.73 -0.2,1.49 -0.59,2.28 -0.39,0.78 -0.98,1.62 -1.8,2.51l-1.73 1.91 4.72 0 -0.44 2.69 -9.26 0 0 0z"/>
   <path fill="#DA8A67" fill-rule="nonzero" d="M60.8 290.45l0 -13.58 0.29 0 8.2 7.67 0 -7.25 2.91 0 0 13.66 -0.28 0 -8.24 -7.69 0 7.18 -2.89 0 0 0zm13.3 0l0 -1.06 4.76 -5.7 0.05 -0.05c0.88,-1.04 1.32,-1.86 1.32,-2.43 0,-0.46 -0.16,-0.85 -0.47,-1.14 -0.31,-0.31 -0.72,-0.46 -1.21,-0.46 -0.46,0 -0.83,0.15 -1.16,0.44 -0.33,0.29 -0.56,0.7 -0.65,1.19l-2.52 -1.24c0.38,-1 0.96,-1.76 1.75,-2.32 0.79,-0.55 1.7,-0.82 2.76,-0.82 1.26,0 2.32,0.39 3.19,1.19 0.85,0.8 1.29,1.79 1.29,2.99 0,0.73 -0.2,1.49 -0.59,2.27 -0.39,0.78 -0.98,1.63 -1.8,2.53l-1.73 1.91 4.72 0 -0.44 2.69 -9.26 0 -0 0z"/>
   <path fill="#DA8A67" fill-rule="nonzero" d="M63.44 344.47l0 -13.58 0.31 0 8.2 7.67 0 -7.25 2.89 0 0 13.66 -0.26 0 -8.24 -7.69 0 7.18 -2.91 0 -0 -0zm17.17 0l0 -10.76 -2.3 0 0.42 -2.4 4.81 0 0 13.16 -2.93 0z"/>
   <path fill="#DA8A67" fill-rule="nonzero" d="M228.51 74.66l1.31 0c0.64,0 1.13,-0.15 1.49,-0.46 0.36,-0.31 0.54,-0.73 0.54,-1.27 0,-0.52 -0.18,-0.93 -0.52,-1.22 -0.36,-0.28 -0.85,-0.42 -1.5,-0.42l-1.31 0 0 3.38 0 0zm0 -5.57l1.05 0c0.62,0 1.1,-0.15 1.45,-0.41 0.34,-0.28 0.52,-0.65 0.52,-1.14 0,-0.49 -0.16,-0.85 -0.51,-1.08 -0.33,-0.25 -0.83,-0.36 -1.53,-0.36l-0.98 0 0 2.99 0 0zm-2.86 7.95l0 -13.16 4.07 0c1.54,0 2.7,0.28 3.48,0.83 0.78,0.56 1.18,1.39 1.18,2.5 0,0.67 -0.18,1.24 -0.54,1.71 -0.36,0.47 -0.9,0.83 -1.62,1.09 0.8,0.18 1.42,0.56 1.88,1.11 0.46,0.57 0.69,1.27 0.69,2.07 0,1.27 -0.47,2.22 -1.4,2.87 -0.93,0.64 -2.32,0.96 -4.15,0.96l-3.58 0 0 0zm14.15 0l0 -10.76 -2.3 0 0.42 -2.4 4.8 0 0 13.16 -2.92 0z"/>
   <path fill="#DA8A67" fill-rule="nonzero" d="M228.51 127.35l1.31 0c0.64,0 1.13,-0.15 1.49,-0.46 0.36,-0.31 0.54,-0.74 0.54,-1.27 0,-0.52 -0.18,-0.93 -0.52,-1.21 -0.36,-0.29 -0.85,-0.44 -1.5,-0.44l-1.31 0 0 3.38 0 0zm0 -5.57l1.05 0c0.62,0 1.1,-0.15 1.45,-0.41 0.34,-0.28 0.52,-0.65 0.52,-1.14 0,-0.49 -0.16,-0.85 -0.51,-1.08 -0.33,-0.23 -0.83,-0.34 -1.53,-0.34l-0.98 0 0 2.97 0 0zm-2.86 7.95l0 -13.16 4.07 0c1.54,0 2.7,0.28 3.48,0.83 0.78,0.57 1.18,1.4 1.18,2.5 0,0.67 -0.18,1.24 -0.54,1.71 -0.36,0.47 -0.9,0.83 -1.62,1.09 0.8,0.18 1.42,0.55 1.88,1.13 0.46,0.55 0.69,1.26 0.69,2.07 0,1.26 -0.47,2.22 -1.4,2.86 -0.93,0.64 -2.32,0.96 -4.15,0.96l-3.58 0 0 0zm10.28 0l0 -1.06 4.77 -5.7 0.03 -0.05c0.88,-1.04 1.32,-1.86 1.32,-2.43 0,-0.46 -0.15,-0.85 -0.46,-1.14 -0.31,-0.31 -0.72,-0.46 -1.22,-0.46 -0.44,0 -0.83,0.15 -1.16,0.44 -0.33,0.29 -0.54,0.7 -0.65,1.19l-2.52 -1.24c0.39,-1 0.96,-1.76 1.75,-2.32 0.78,-0.55 1.72,-0.82 2.76,-0.82 1.27,0 2.34,0.39 3.19,1.19 0.87,0.8 1.29,1.8 1.29,2.99 0,0.73 -0.2,1.49 -0.57,2.27 -0.39,0.78 -1,1.63 -1.81,2.53l-1.72 1.91 4.72 0 -0.44 2.69 -9.28 0 0 0z"/>
   <path fill="#DA8A67" fill-rule="nonzero" d="M224.57 183.75l2.73 -13.58 0.23 0 4.97 8.57 4.69 -8.57 0.25 0 2.75 13.58 -2.99 0 -1.11 -6.01 -3.53 6.5 -0.21 0 -3.81 -6.59 -1.14 6.1 -2.81 0 0 0zm20.28 0l0 -10.76 -2.3 0 0.42 -2.4 4.8 0 0 13.16 -2.92 0z"/>
   <path fill="#DA8A67" fill-rule="nonzero" d="M223.25 236.44l2.74 -13.58 0.21 0 4.98 8.57 4.69 -8.57 0.23 0 2.76 13.58 -2.99 0 -1.13 -6.01 -3.53 6.5 -0.21 0 -3.79 -6.58 -1.16 6.09 -2.81 0zm16.41 0l0 -1.06 4.77 -5.7 0.03 -0.05c0.88,-1.04 1.32,-1.86 1.32,-2.43 0,-0.46 -0.15,-0.85 -0.47,-1.14 -0.31,-0.31 -0.7,-0.46 -1.21,-0.46 -0.44,0 -0.83,0.15 -1.16,0.44 -0.33,0.29 -0.54,0.7 -0.65,1.21l-2.52 -1.26c0.39,-1 0.96,-1.76 1.75,-2.32 0.79,-0.54 1.72,-0.82 2.76,-0.82 1.27,0 2.34,0.39 3.19,1.19 0.87,0.8 1.29,1.8 1.29,2.99 0,0.73 -0.2,1.49 -0.57,2.28 -0.39,0.78 -1,1.62 -1.81,2.51l-1.72 1.91 4.72 0 -0.44 2.69 -9.28 0 0 0z"/>
   <path fill="#DA8A67" fill-rule="nonzero" d="M224.33 290.45l0 -13.58 0.31 0 8.2 7.67 0 -7.25 2.89 0 0 13.66 -0.26 0 -8.24 -7.69 0 7.18 -2.91 0 0 0zm13.3 0l0 -1.06 4.77 -5.7 0.03 -0.05c0.88,-1.04 1.32,-1.86 1.32,-2.43 0,-0.46 -0.16,-0.85 -0.47,-1.14 -0.31,-0.31 -0.72,-0.46 -1.21,-0.46 -0.44,0 -0.83,0.15 -1.16,0.44 -0.33,0.29 -0.54,0.7 -0.65,1.19l-2.52 -1.24c0.38,-1 0.96,-1.76 1.75,-2.32 0.78,-0.55 1.7,-0.82 2.76,-0.82 1.27,0 2.32,0.39 3.19,1.19 0.87,0.8 1.29,1.79 1.29,2.99 0,0.73 -0.2,1.49 -0.59,2.27 -0.38,0.78 -0.98,1.63 -1.8,2.53l-1.73 1.91 4.74 0 -0.44 2.69 -9.28 0 0 0z"/>
   <path fill="#DA8A67" fill-rule="nonzero" d="M225.65 344.47l0 -13.58 0.29 0 8.2 7.67 0 -7.25 2.91 0 0 13.66 -0.28 0 -8.22 -7.69 0 7.18 -2.91 0 0 -0zm17.17 0l0 -10.76 -2.3 0 0.42 -2.4 4.8 0 0 13.16 -2.92 0z"/>
   <path fill="#DA8A67" fill-rule="nonzero" d="M109.76 341.06c0.57,0.44 1.1,0.75 1.57,0.96 0.49,0.21 0.93,0.33 1.36,0.33 0.54,0 0.98,-0.15 1.31,-0.43 0.34,-0.29 0.51,-0.67 0.51,-1.13 0,-0.52 -0.23,-0.91 -0.69,-1.17 -0.46,-0.28 -1.13,-0.41 -2.03,-0.41l-0.34 0 0 -2.27c1,-0.03 1.75,-0.2 2.24,-0.49 0.49,-0.29 0.74,-0.7 0.74,-1.26 0,-0.38 -0.13,-0.69 -0.38,-0.93 -0.24,-0.25 -0.57,-0.36 -0.96,-0.36 -0.36,0 -0.74,0.1 -1.14,0.33 -0.39,0.23 -0.85,0.57 -1.32,1.04l-1.68 -1.76c0.62,-0.77 1.27,-1.34 1.99,-1.71 0.7,-0.38 1.45,-0.55 2.27,-0.55 1.18,0 2.16,0.36 2.94,1.09 0.78,0.72 1.18,1.63 1.18,2.73 0,0.6 -0.15,1.14 -0.41,1.62 -0.28,0.49 -0.65,0.88 -1.16,1.19 0.59,0.29 1.03,0.72 1.36,1.27 0.33,0.56 0.49,1.21 0.49,1.94 0,1.26 -0.44,2.25 -1.32,3.04 -0.87,0.78 -2.01,1.17 -3.43,1.17 -0.82,0 -1.63,-0.16 -2.44,-0.46 -0.82,-0.31 -1.55,-0.75 -2.21,-1.31l1.57 -2.48 0 0zm9.08 3.79l4.74 -6.81 -4.67 -6.35 3.84 0 2.73 3.75 2.55 -3.75 3.41 0 -4.23 6.09 5.18 7.07 -3.86 0 -3.2 -4.46 -3.04 4.46 -3.45 0 -0 0zm15.1 -3.79c0.57,0.44 1.09,0.75 1.57,0.96 0.49,0.21 0.93,0.33 1.36,0.33 0.54,0 0.98,-0.15 1.31,-0.43 0.33,-0.29 0.49,-0.67 0.49,-1.13 0,-0.52 -0.23,-0.91 -0.67,-1.17 -0.46,-0.28 -1.13,-0.41 -2.03,-0.41l-0.34 0 0 -2.27c1,-0.03 1.75,-0.2 2.24,-0.49 0.49,-0.29 0.73,-0.7 0.73,-1.26 0,-0.38 -0.13,-0.69 -0.38,-0.93 -0.26,-0.25 -0.57,-0.36 -0.96,-0.36 -0.36,0 -0.73,0.1 -1.14,0.33 -0.41,0.23 -0.85,0.57 -1.34,1.04l-1.67 -1.76c0.62,-0.77 1.27,-1.34 1.99,-1.71 0.7,-0.38 1.45,-0.55 2.27,-0.55 1.18,0 2.16,0.36 2.94,1.09 0.77,0.72 1.16,1.63 1.16,2.73 0,0.6 -0.13,1.14 -0.39,1.62 -0.28,0.49 -0.67,0.88 -1.16,1.19 0.59,0.29 1.03,0.72 1.36,1.27 0.33,0.56 0.47,1.21 0.47,1.94 0,1.26 -0.43,2.25 -1.31,3.04 -0.88,0.78 -2.01,1.17 -3.43,1.17 -0.82,0 -1.63,-0.16 -2.45,-0.46 -0.8,-0.31 -1.54,-0.75 -2.21,-1.31l1.58 -2.48 0 0zm30.38 -1.57l0 -2.53 4.82 0 0 2.53 -4.82 0zm10.11 -1.22c0,1.31 0.15,2.32 0.46,3.07 0.31,0.73 0.73,1.09 1.26,1.09 0.54,0 0.96,-0.36 1.27,-1.09 0.31,-0.73 0.46,-1.75 0.46,-3.07 0,-1.32 -0.15,-2.35 -0.46,-3.07 -0.29,-0.73 -0.72,-1.11 -1.27,-1.11 -0.52,0 -0.95,0.38 -1.26,1.11 -0.29,0.73 -0.46,1.76 -0.46,3.07zm-3.01 0c0,-2.19 0.41,-3.92 1.26,-5.14 0.83,-1.24 1.99,-1.86 3.46,-1.86 1.47,0 2.63,0.62 3.48,1.86 0.85,1.24 1.26,2.95 1.26,5.14 0,2.19 -0.41,3.9 -1.26,5.14 -0.85,1.26 -2.01,1.88 -3.48,1.88 -1.47,0 -2.63,-0.62 -3.46,-1.86 -0.85,-1.24 -1.26,-2.96 -1.26,-5.16l0 0zm11.96 2.79c0.57,0.44 1.09,0.75 1.57,0.96 0.49,0.21 0.93,0.33 1.36,0.33 0.54,0 0.98,-0.15 1.31,-0.43 0.33,-0.29 0.49,-0.67 0.49,-1.13 0,-0.52 -0.21,-0.91 -0.67,-1.17 -0.46,-0.28 -1.13,-0.41 -2.03,-0.41l-0.34 0 0 -2.27c1,-0.03 1.75,-0.2 2.24,-0.49 0.49,-0.29 0.74,-0.7 0.74,-1.26 0,-0.38 -0.13,-0.69 -0.38,-0.93 -0.26,-0.25 -0.57,-0.36 -0.96,-0.36 -0.36,0 -0.74,0.1 -1.14,0.33 -0.41,0.23 -0.85,0.57 -1.34,1.04l-1.67 -1.76c0.62,-0.77 1.27,-1.34 1.99,-1.71 0.7,-0.38 1.45,-0.55 2.27,-0.55 1.18,0 2.16,0.36 2.94,1.09 0.79,0.72 1.16,1.63 1.16,2.73 0,0.6 -0.13,1.14 -0.39,1.62 -0.28,0.49 -0.65,0.88 -1.16,1.19 0.59,0.29 1.03,0.72 1.36,1.27 0.33,0.56 0.49,1.21 0.49,1.94 0,1.26 -0.44,2.25 -1.32,3.04 -0.88,0.78 -2.01,1.17 -3.43,1.17 -0.82,0 -1.63,-0.16 -2.43,-0.46 -0.82,-0.31 -1.55,-0.75 -2.22,-1.31l1.58 -2.48 0 0z"/>
   <path fill="#DA8A67" fill-rule="nonzero" d="M152.71 362.49l0 6.4c-0.88,0.44 -1.75,0.77 -2.58,0.99 -0.85,0.23 -1.65,0.34 -2.45,0.34 -1.99,0 -3.66,-0.67 -4.98,-1.99 -1.32,-1.32 -1.99,-2.99 -1.99,-4.99 0,-2.04 0.67,-3.72 2.03,-5.06 1.34,-1.32 3.04,-1.99 5.08,-1.99 0.78,0 1.52,0.1 2.22,0.33 0.7,0.2 1.37,0.52 2.03,0.95l-0.34 3.3c-0.6,-0.62 -1.21,-1.06 -1.81,-1.35 -0.61,-0.28 -1.24,-0.42 -1.91,-0.42 -1.18,0 -2.16,0.39 -2.94,1.17 -0.77,0.8 -1.16,1.78 -1.16,2.97 0,1.24 0.38,2.27 1.13,3.05 0.75,0.78 1.72,1.17 2.89,1.17 0.26,0 0.54,-0.02 0.82,-0.07 0.29,-0.05 0.57,-0.11 0.88,-0.21l0 -1.91 -2.5 0 0 -2.68 5.6 0zm5.72 4.49l0.69 0c1.37,0 2.45,-0.34 3.23,-1.01 0.77,-0.65 1.16,-1.58 1.16,-2.74 0,-1.17 -0.39,-2.11 -1.16,-2.77 -0.78,-0.67 -1.86,-1.01 -3.23,-1.01l-0.69 0 0 7.54zm-3.1 2.82l0 -13.17 3.5 0c2.45,0 4.38,0.59 5.78,1.76 1.39,1.17 2.08,2.79 2.08,4.83 0,1.21 -0.28,2.3 -0.82,3.25 -0.56,0.95 -1.36,1.71 -2.43,2.33 -0.61,0.36 -1.26,0.6 -1.98,0.75 -0.7,0.16 -1.58,0.24 -2.63,0.24l-3.5 0z"/>
   <path fill="#DA8A67" fill-rule="nonzero" d="M118.16 67.97c-0.57,-0.59 -1.16,-1.03 -1.73,-1.31 -0.59,-0.29 -1.21,-0.42 -1.85,-0.42 -1.11,0 -2.03,0.37 -2.73,1.14 -0.72,0.77 -1.06,1.76 -1.06,2.97 0,1.19 0.34,2.17 1.05,2.92 0.7,0.75 1.62,1.13 2.75,1.13 0.67,0 1.34,-0.15 1.99,-0.43 0.67,-0.28 1.32,-0.7 1.99,-1.26l-0.21 3.49c-0.56,0.39 -1.18,0.67 -1.85,0.88 -0.67,0.2 -1.36,0.29 -2.08,0.29 -0.78,0 -1.52,-0.11 -2.24,-0.36 -0.7,-0.25 -1.37,-0.6 -1.96,-1.08 -0.85,-0.67 -1.5,-1.47 -1.96,-2.43 -0.44,-0.96 -0.67,-2.01 -0.67,-3.13 0,-0.98 0.16,-1.89 0.51,-2.74 0.33,-0.85 0.82,-1.62 1.45,-2.27 0.64,-0.65 1.37,-1.14 2.22,-1.5 0.83,-0.34 1.72,-0.52 2.66,-0.52 0.73,0 1.44,0.1 2.11,0.31 0.67,0.21 1.32,0.52 1.93,0.95l-0.33 3.36 -0 -0zm6 4.82l3.46 0 -1.72 -4.13 -1.75 4.13zm-4.93 4.18l6.72 -13.56 0.21 0 6.57 13.56 -3.3 0 -0.83 -1.91 -5.34 0 -0.85 1.91 -3.17 0 0 0z"/>
   <path fill="#DA8A67" fill-rule="nonzero" d="M186.99 67.63c-0.57,-0.59 -1.14,-1.03 -1.73,-1.31 -0.59,-0.29 -1.19,-0.42 -1.85,-0.42 -1.11,0 -2.03,0.38 -2.73,1.14 -0.7,0.77 -1.06,1.76 -1.06,2.97 0,1.19 0.36,2.17 1.06,2.92 0.69,0.75 1.6,1.13 2.75,1.13 0.65,0 1.32,-0.15 1.99,-0.42 0.65,-0.28 1.32,-0.7 1.98,-1.26l-0.2 3.49c-0.57,0.39 -1.18,0.67 -1.85,0.88 -0.67,0.2 -1.37,0.29 -2.09,0.29 -0.78,0 -1.52,-0.11 -2.24,-0.36 -0.7,-0.25 -1.36,-0.6 -1.96,-1.08 -0.85,-0.67 -1.5,-1.47 -1.94,-2.43 -0.46,-0.96 -0.69,-2.01 -0.69,-3.13 0,-0.98 0.18,-1.89 0.51,-2.74 0.33,-0.86 0.82,-1.62 1.45,-2.27 0.64,-0.65 1.39,-1.14 2.22,-1.5 0.85,-0.34 1.73,-0.52 2.66,-0.52 0.74,0 1.44,0.1 2.12,0.31 0.67,0.21 1.31,0.52 1.93,0.93l-0.34 3.38 0 -0zm5.33 6.61l1.31 0c0.62,0 1.11,-0.15 1.47,-0.46 0.36,-0.31 0.54,-0.73 0.54,-1.27 0,-0.52 -0.16,-0.93 -0.52,-1.22 -0.34,-0.29 -0.85,-0.42 -1.49,-0.42l-1.31 0 0 3.38zm0 -5.58l1.05 0c0.61,0 1.1,-0.13 1.44,-0.41 0.34,-0.26 0.52,-0.64 0.52,-1.13 0,-0.51 -0.16,-0.86 -0.49,-1.09 -0.34,-0.23 -0.85,-0.34 -1.55,-0.34l-0.96 0 0 2.97 0 0zm-2.88 7.97l0 -13.17 4.07 0c1.54,0 2.7,0.29 3.48,0.85 0.78,0.55 1.18,1.39 1.18,2.5 0,0.67 -0.18,1.24 -0.54,1.7 -0.36,0.47 -0.9,0.85 -1.62,1.09 0.8,0.2 1.44,0.56 1.9,1.13 0.44,0.57 0.67,1.26 0.67,2.07 0,1.27 -0.46,2.22 -1.4,2.87 -0.93,0.64 -2.32,0.96 -4.15,0.96l-3.58 0z"/>
   <polygon fill="#DA8A67" points="98.49,70.79 100.91,73.47 103.31,76.15 103.31,70.79 103.31,65.44 100.91,68.12 "/>
   <polygon fill="#DA8A67" points="208.82,70.79 206.4,73.47 203.98,76.15 203.98,70.79 203.98,65.44 206.4,68.12 "/>
  </g>
  <g id="pads">
   <path fill="#DA8A67" d="M7.85 206.79l71.8 0c1.44,0 2.64,1.18 2.64,2.62l0 11.18 -18.6 0c-5.64,0 -10.27,4.61 -10.27,10.26l0 0c0,5.63 4.63,10.24 10.27,10.24l18.6 0 0 11.59c0,1.46 -1.2,2.64 -2.64,2.64l-71.8 0c-1.44,0 -2.63,-1.18 -2.63,-2.64l0 -43.26c0,-1.44 1.18,-2.62 2.63,-2.62z"/>
   <path fill="#DA8A67" d="M79.65 313.88l-71.8 0c-1.44,0 -2.51,1.2 -2.63,2.64 -2.89,33.96 41.88,55.52 54.73,63.04 0.5,0.23 0.92,0.4 1.48,0.4 0.52,0 1.04,-0.16 1.5,-0.4 6.47,-8.55 14.55,-19.17 19.37,-25.69l0 -6.17 -18.39 0c-5.76,0 -10.48,-4.69 -10.48,-10.45l0 0c0,-5.75 4.72,-10.46 10.48,-10.46l18.39 0 0 -10.27c0,-1.44 -1.2,-2.64 -2.64,-2.64l0 0z"/>
   <path fill="#DA8A67" d="M148.76 60.34l-61.44 0 -0.02 -7.53 -17.59 -24.26c-1.25,-1.25 -1.67,-3.13 -0.19,-4.4 14.13,-7.25 44.32,-18.62 79.24,-18.62 1.44,0 2.63,1.18 2.63,2.64l0 49.54c0,1.44 -1.18,2.62 -2.63,2.62z"/>
   <path fill="#DA8A67" d="M176.52 315.98l43.14 0 0 40.17 18.22 24.26c1.74,2.68 0.94,2.85 -1.53,4.36 -12.63,7.72 -35.64,14.03 -59.53,16.79l0 0.17c-7.25,1.03 -15.19,1.44 -23.39,1.36 -8.21,0.09 -16.13,-0.33 -23.39,-1.36l0 -0.17c-23.91,-2.76 -46.91,-9.07 -59.55,-16.79 -2.47,-1.51 -3.27,-1.69 -1.53,-4.36l18.22 -24.26 0 -40.17 43.28 0 0 11.3 -22.62 0c-5.76,0 -10.48,4.69 -10.48,10.45l0 0c0,5.77 4.72,10.46 10.48,10.46l44.39 0 0 4.61 -4.18 0c-5.65,0 -10.27,4.61 -10.27,10.24l0 0c0,5.65 4.61,10.25 10.27,10.25l10.88 0c5.66,0 10.27,-4.61 10.27,-10.25l0 0c0,-5.63 -4.61,-10.24 -10.27,-10.24l-4.18 0 0 -4.61 43.97 0c5.76,0 10.48,-4.69 10.48,-10.46l0 0c0,-5.75 -4.72,-10.45 -10.48,-10.45l-22.2 0 0 -11.3 0 0z"/>
   <path fill="#DA8A67" d="M7.85 152.75l71.8 0c1.44,0 2.64,1.2 2.64,2.64l0 11.18 -18.6 0c-5.64,0 -10.27,4.61 -10.27,10.24l0 0c0,5.65 4.63,10.25 10.27,10.25l18.6 0 0 11.59c0,1.44 -1.2,2.62 -2.64,2.62l-71.8 0c-1.44,0 -2.63,-1.18 -2.63,-2.62l0 -43.26c0,-1.44 1.18,-2.64 2.63,-2.64z"/>
   <path fill="#DA8A67" d="M7.85 260.67l71.8 0c1.44,0 2.64,1.18 2.64,2.64l0 11.18 -18.6 0c-5.64,0 -10.27,4.61 -10.27,10.24l0 0c0,5.65 4.63,10.25 10.27,10.25l18.6 0 0 11.59c0,1.44 -1.2,2.62 -2.64,2.62l-71.8 0c-1.44,0 -2.63,-1.18 -2.63,-2.62l0 -43.26c0,-1.46 1.18,-2.64 2.63,-2.64z"/>
   <path fill="#DA8A67" d="M7.85 98.86l71.8 0c1.44,0 2.64,1.18 2.64,2.62l0 11.18 -18.6 0c-5.64,0 -10.27,4.61 -10.27,10.26l0 0c0,5.63 4.63,10.25 10.27,10.25l18.6 0 0 11.58c0,1.46 -1.2,2.64 -2.64,2.64l-71.8 0c-1.44,0 -2.63,-1.18 -2.63,-2.64l0 -43.26c0,-1.44 1.18,-2.62 2.63,-2.62z"/>
   <path fill="#DA8A67" d="M298.64 206.79l-71.8 0c-1.46,0 -2.64,1.18 -2.64,2.62l0 11.18 18.6 0c5.64,0 10.27,4.61 10.27,10.26l0 0c0,5.63 -4.63,10.24 -10.27,10.24l-18.6 0 0 11.59c0,1.46 1.18,2.64 2.64,2.64l71.8 0c1.44,0 2.63,-1.18 2.63,-2.64l0 -43.26c0,-1.44 -1.18,-2.62 -2.63,-2.62z"/>
   <path fill="#DA8A67" d="M298.64 152.75l-71.8 0c-1.46,0 -2.64,1.2 -2.64,2.64l0 11.18 18.6 0c5.64,0 10.27,4.61 10.27,10.24l0 0c0,5.65 -4.63,10.25 -10.27,10.25l-18.6 0 0 11.59c0,1.44 1.18,2.62 2.64,2.62l71.8 0c1.44,0 2.63,-1.18 2.63,-2.62l0 -43.26c0,-1.44 -1.18,-2.64 -2.63,-2.64z"/>
   <path fill="#DA8A67" d="M298.64 260.67l-71.8 0c-1.46,0 -2.64,1.18 -2.64,2.64l0 11.18 18.6 0c5.64,0 10.27,4.61 10.27,10.24l0 0c0,5.65 -4.63,10.25 -10.27,10.25l-18.6 0 0 11.59c0,1.44 1.18,2.62 2.64,2.62l71.8 0c1.44,0 2.63,-1.18 2.63,-2.62l0 -43.26c0,-1.46 -1.18,-2.64 -2.63,-2.64z"/>
   <path fill="#DA8A67" d="M298.64 98.86l-71.8 0c-1.46,0 -2.64,1.18 -2.64,2.62l0 11.18 18.6 0c5.64,0 10.27,4.61 10.27,10.26l0 0c0,5.63 -4.63,10.25 -10.27,10.25l-18.6 0 0 11.58c0,1.46 1.18,2.64 2.64,2.64l71.8 0c1.44,0 2.63,-1.18 2.63,-2.64l0 -43.26c0,-1.44 -1.18,-2.62 -2.63,-2.62z"/>
   <path fill="#DA8A67" d="M226.84 313.88l71.78 0c1.46,0 2.52,1.2 2.64,2.64 2.89,33.96 -41.88,55.52 -54.72,63.04 -0.5,0.23 -0.92,0.4 -1.48,0.4 -0.52,0 -1.04,-0.16 -1.5,-0.4 -6.47,-8.55 -14.55,-19.17 -19.37,-25.69l0 -6.17 18.39 0c5.76,0 10.48,-4.69 10.48,-10.45l0 0c0,-5.75 -4.72,-10.46 -10.48,-10.46l-18.39 0 0 -10.27c0,-1.44 1.2,-2.64 2.64,-2.64l0 0z"/>
   <path fill="#DA8A67" d="M79.65 94.01l-71.8 0c-1.44,0 -2.51,-1.18 -2.63,-2.64 -2.89,-33.97 41.88,-55.52 54.73,-63.04 0.5,-0.21 0.92,-0.38 1.48,-0.38 0.52,0 1.04,0.16 1.5,0.38 6.47,8.55 14.55,19.19 19.37,25.69l0 6.17 -18.39 0c-5.76,0 -10.48,4.71 -10.48,10.46l0 0c0,5.75 4.72,10.47 10.48,10.47l18.39 0 0 10.25c0,1.46 -1.2,2.64 -2.64,2.64l0 0z"/>
   <path fill="#DA8A67" d="M226.84 94.01l71.78 0c1.46,0 2.52,-1.18 2.64,-2.64 2.89,-33.97 -41.88,-55.52 -54.72,-63.04 -0.5,-0.21 -0.92,-0.38 -1.48,-0.38 -0.52,0 -1.04,0.16 -1.5,0.38 -6.47,8.55 -14.55,19.19 -19.37,25.69l0 6.17 18.39 0c5.76,0 10.48,4.71 10.48,10.46l0 0c0,5.75 -4.72,10.47 -10.48,10.47l-18.39 0 0 10.25c0,1.46 1.2,2.64 2.64,2.64l0 0z"/>
   <path fill="#DA8A67" d="M158.28 60.34l61.43 0 0.02 -7.53 17.59 -24.26c1.25,-1.25 1.69,-3.13 0.21,-4.4 -14.13,-7.25 -44.34,-18.62 -79.24,-18.62 -1.44,0 -2.64,1.18 -2.64,2.64l0 49.54c0,1.44 1.2,2.62 2.64,2.62z"/>
  </g>
 </g>
</svg>
